<svg id="Layer_1" data-name="Layer 1" xmlns="http://www.w3.org/2000/svg" viewBox="0 0 536.22 223.93"><defs><style>.cls-1{fill:#063075;}.cls-2{fill:#aa1327;}.cls-3{fill:#cd7b3d;}</style></defs><path d="M266.93,173.71l-24.32-42.44h-6.2v42.44H209.22V61.32h46.42q13.37,0,22.58,4.61a31.9,31.9,0,0,1,13.83,12.64,36.23,36.23,0,0,1,4.61,18.36q0,12.24-6.76,20.82t-19.63,11.77L297,173.71Zm-30.52-61h16.85q8.1,0,11.92-3.58T269,98.52q0-6.67-3.9-10.49t-11.84-3.82H236.41Z"/><path d="M397.21,71.49q14.06,11.3,18.2,30.52H386.63a26.47,26.47,0,0,0-9.77-12.24,27.39,27.39,0,0,0-15.66-4.45q-11.93,0-19.24,8.75t-7.31,23.37q0,14.63,7.31,23.28t19.24,8.67a27.32,27.32,0,0,0,15.66-4.45,26.6,26.6,0,0,0,9.77-12.08h28.78q-4.14,19.06-18.2,30.44t-35.53,11.36q-16.38,0-28.78-7.23a49.09,49.09,0,0,1-19.15-20.27q-6.76-13-6.76-29.72t6.76-29.73A49.09,49.09,0,0,1,332.9,67.44q12.41-7.23,28.78-7.23Q383.13,60.21,397.21,71.49Z"/><path d="M500.3,152.85H458.17l-7,20.86H422.56l41.17-113.5h31.32l41.17,113.5H507.29Zm-7-21-14-42-14.15,42Z"/><path d="M272.48,191.29a14.5,14.5,0,0,1,5.47,7.82h-3.5a11.54,11.54,0,0,0-4.4-5.52,13.61,13.61,0,0,0-13.92-.38,12,12,0,0,0-4.63,4.94,17.66,17.66,0,0,0,0,15.08,12.14,12.14,0,0,0,4.71,4.94,13.48,13.48,0,0,0,6.84,1.73,13,13,0,0,0,6.24-1.51,11.76,11.76,0,0,0,4.58-4.39,15,15,0,0,0,2.05-6.77H261.87v-2.55h17v3a17.44,17.44,0,0,1-2.42,7.78,15.23,15.23,0,0,1-5.62,5.45,16.14,16.14,0,0,1-8,2,16.64,16.64,0,0,1-8.55-2.19,15,15,0,0,1-5.81-6.12,20.39,20.39,0,0,1,0-17.86,15.12,15.12,0,0,1,5.79-6.12,16.47,16.47,0,0,1,8.52-2.18A16.22,16.22,0,0,1,272.48,191.29Z"/><path d="M327.16,222.54l-9.26-14.11h-5.48v14.11H309V188.69h10.37q5.72,0,8.53,2.69a9.59,9.59,0,0,1,2.81,7.25,9.35,9.35,0,0,1-2.38,6.72,10.7,10.7,0,0,1-6.89,3L331,222.54Zm-14.74-16.66h6.72q8.17,0,8.17-7.06t-8.17-7.2h-6.72Z"/><path d="M384.15,190.52a15.59,15.59,0,0,1,5.88,6.14,19.76,19.76,0,0,1,0,17.89,15.54,15.54,0,0,1-5.88,6.17,17.26,17.26,0,0,1-16.9,0,15.54,15.54,0,0,1-5.88-6.17,19.76,19.76,0,0,1,0-17.89,15.59,15.59,0,0,1,5.88-6.14,17.26,17.26,0,0,1,16.9,0Zm-15.1,2.64a12.22,12.22,0,0,0-4.66,4.94,17.35,17.35,0,0,0,0,15,12.18,12.18,0,0,0,4.66,4.95,13.65,13.65,0,0,0,13.3,0,12.18,12.18,0,0,0,4.66-4.95,17.35,17.35,0,0,0,0-15,12.22,12.22,0,0,0-4.66-4.94,13.65,13.65,0,0,0-13.3,0Z"/><path d="M425.49,188.69v20.5q0,5.43,2.37,8a8.48,8.48,0,0,0,6.51,2.55,8.33,8.33,0,0,0,6.46-2.55q2.32-2.53,2.33-8v-20.5h3.36v20.5q0,6.87-3.32,10.28a13.27,13.27,0,0,1-17.76,0q-3.31-3.41-3.31-10.28v-20.5Z"/><path d="M481,208.43v14.11h-3.41V188.69h10.13q5.72,0,8.52,2.64a9.5,9.5,0,0,1,2.81,7.25,9.2,9.2,0,0,1-2.91,7.28q-2.9,2.56-8.42,2.57Zm12.72-4.69a6.73,6.73,0,0,0,1.92-5.16,6.85,6.85,0,0,0-1.92-5.25q-1.92-1.8-6.29-1.8H481v14h6.43Q491.84,205.55,493.76,203.74Z"/><rect class="cls-1" x="58.53" y="1" width="43.42" height="43.42"/><rect class="cls-1" x="112.33" y="59.53" width="43.42" height="43.42"/><rect class="cls-1" y="59.53" width="43.42" height="43.42"/><rect class="cls-2" x="58.53" y="118.05" width="43.42" height="43.42"/><rect class="cls-3" x="112.33" y="176.58" width="43.42" height="43.42"/><rect class="cls-3" y="176.58" width="43.42" height="43.42"/></svg>